<?xml version="1.0" encoding="UTF-8"?>
<svg id="Layer_1" xmlns="http://www.w3.org/2000/svg" version="1.1" viewBox="0 0 24 24">
  <!-- Generator: Adobe Illustrator 30.0.0, SVG Export Plug-In . SVG Version: 2.1.1 Build 123)  -->
  <path d="M12,21c-2.5,0-4.63-.88-6.38-2.63s-2.63-3.88-2.63-6.38.88-4.63,2.63-6.38,3.88-2.63,6.38-2.63c.23,0,.46,0,.69.03s.45.04.66.08c-.68.48-1.23,1.11-1.64,1.89s-.61,1.61-.61,2.51c0,1.5.53,2.78,1.58,3.83s2.33,1.58,3.83,1.58c.92,0,1.76-.2,2.53-.61s1.39-.95,1.88-1.64c.03.22.06.44.08.66s.03.45.03.69c0,2.5-.88,4.63-2.63,6.38s-3.88,2.63-6.38,2.63ZM12,19c1.47,0,2.78-.4,3.95-1.21,1.17-.81,2.02-1.86,2.55-3.16-.33.08-.67.15-1,.2s-.67.08-1,.08c-2.05,0-3.8-.72-5.24-2.16s-2.16-3.19-2.16-5.24c0-.33.03-.67.08-1s.12-.67.2-1c-1.3.53-2.35,1.38-3.16,2.55-.81,1.17-1.21,2.48-1.21,3.95,0,1.93.68,3.58,2.05,4.95,1.37,1.37,3.02,2.05,4.95,2.05Z"/>
</svg>