<?xml version="1.0" encoding="UTF-8"?>
<svg id="Layer_1" xmlns="http://www.w3.org/2000/svg" version="1.1" viewBox="0 0 24 24">
  <!-- Generator: Adobe Illustrator 30.0.0, SVG Export Plug-In . SVG Version: 2.1.1 Build 123)  -->
  <path d="M12,15c.83,0,1.54-.29,2.13-.88s.88-1.29.88-2.13-.29-1.54-.88-2.13-1.29-.88-2.13-.88-1.54.29-2.13.88-.88,1.29-.88,2.13.29,1.54.88,2.13,1.29.88,2.13.88ZM12,17c-1.38,0-2.56-.49-3.54-1.46s-1.46-2.15-1.46-3.54.49-2.56,1.46-3.54,2.15-1.46,3.54-1.46,2.56.49,3.54,1.46,1.46,2.15,1.46,3.54-.49,2.56-1.46,3.54-2.15,1.46-3.54,1.46ZM5,13H1v-2h4v2ZM23,13h-4v-2h4v2ZM11,5V1h2v4h-2ZM11,23v-4h2v4h-2ZM6.4,7.75l-2.53-2.43,1.43-1.48,2.4,2.5-1.3,1.4ZM18.7,20.15l-2.43-2.53,1.33-1.38,2.53,2.43-1.43,1.48ZM16.25,6.4l2.43-2.53,1.48,1.43-2.5,2.4-1.4-1.3ZM3.85,18.7l2.53-2.43,1.38,1.33-2.43,2.53-1.48-1.43Z"/>
</svg>